<svg xmlns="http://www.w3.org/2000/svg" width="218" height="64" fill="none" viewBox="0 0 218 64"><path fill="#ffffff" fill-rule="evenodd" d="M65.965 9.765a21.36 21.36 0 0 1 15.162 9.481c.797 1.211 1.54 2.625 1.998 3.805l.386.991c.041.106-.69.134-3.444.134-2.954 0-3.516.025-3.628.159-.164.196.018 2.34.219 2.58.107.13.743.155 3.874.155h3.745l.063.295c.308 1.43.364 4.5.116 6.371-.263 1.987-.84 4.068-1.608 5.793l-.273.617H76.6c-5.71 0-5.984.009-6.178.202-.153.153-.223.444-.288 1.205-.048.552-.074 1.076-.06 1.165.072.418.205.428 5.523.428 2.83 0 5.145.03 5.145.066 0 .181-1.575 2.044-2.499 2.954a21.637 21.637 0 0 1-7.62 4.838c-1.06.394-2.447.778-2.526.7-.024-.024.12-.56.32-1.19.406-1.27 1.024-3.902 1.024-4.354 0-.482-.164-.548-1.36-.548-1.47 0-1.549.068-1.87 1.607-.273 1.315-1.033 3.679-1.437 4.473-.245.481-.336.565-.686.631-.634.121-3.825-.146-5.22-.436-5.84-1.215-10.938-4.795-14.014-9.84-.587-.963-1.482-2.804-1.775-3.651l-.21-.608h3.373c4.183 0 3.905.111 3.73-1.5-.082-.742-.181-1.178-.299-1.307-.163-.18-.441-.194-3.861-.194-3.064 0-3.695-.026-3.743-.15-.191-.497-.31-2.568-.256-4.456.082-2.843.525-4.943 1.566-7.425l.393-.937h5.935c6.866 0 6.33.088 6.499-1.072.144-.997.13-1.669-.04-1.808-.1-.083-1.731-.128-5.378-.147l-5.235-.028.559-.75c.756-1.017 3.061-3.305 4.118-4.089 2.197-1.63 4.545-2.798 7.08-3.524.53-.152.98-.26.999-.24.02.02-.127.546-.325 1.17-.496 1.555-1.046 4-1.006 4.472l.032.389 1.24.03c.901.021 1.293-.01 1.435-.113.134-.097.292-.566.5-1.477.373-1.64.876-3.227 1.35-4.255l.359-.777h1.4c.77 0 1.972.074 2.67.165Zm33.983 2.753c.22.313.231 1.67.015 1.965-.13.177-.314.213-1.238.245l-1.085.037V25.89h1.094c1.427 0 1.489.05 1.489 1.196 0 1.349.246 1.27-3.921 1.27-3.03 0-3.513-.023-3.66-.17-.211-.21-.243-1.964-.04-2.167.085-.084.532-.129 1.292-.129h1.163V14.745h-.962c-.529 0-1.086-.047-1.238-.105-.269-.102-.276-.13-.276-1.104 0-.634.047-1.046.13-1.128.094-.095 1.043-.128 3.599-.128 3.464 0 3.47 0 3.638.238Zm18.71 1.074c.15.112.185.376.209 1.581l.029 1.447 1.484.03c1.256.025 1.495.057 1.552.205.102.264-.181 1.775-.372 1.99-.142.158-.365.187-1.453.187h-1.285l.039 2.974c.033 2.542.065 3.023.221 3.309.224.412.854.683 1.583.683.872 0 .868-.005.868 1.155 0 1.249-.103 1.417-.863 1.417-1.889 0-3.513-.964-4.104-2.437-.237-.588-.25-.77-.285-3.86l-.036-3.241h-.958c-.839 0-.971-.026-1.07-.209-.159-.296-.436-1.804-.365-1.988.046-.118.329-.161 1.207-.184l1.146-.03.029-1.448c.024-1.205.059-1.469.209-1.58.112-.084.534-.134 1.108-.134.574 0 .996.05 1.107.133Zm55.213 0c.15.112.185.376.209 1.581l.029 1.447 1.291.054 1.292.053.031 1.003c.02.646-.013 1.055-.094 1.152-.094.112-.433.15-1.358.15h-1.234l.04 2.974c.03 2.286.074 3.044.191 3.277.22.438.837.715 1.591.715.346 0 .687.058.758.129.081.081.129.49.129 1.108 0 1.304-.088 1.393-1.275 1.302-2.035-.156-3.379-1.176-3.832-2.91-.131-.503-.167-1.27-.167-3.617v-2.978h-.965c-.846 0-.979-.026-1.077-.209-.159-.296-.436-1.804-.365-1.988.046-.118.329-.161 1.206-.184l1.147-.03.029-1.448c.024-1.205.059-1.469.209-1.58.111-.084.533-.134 1.108-.134.574 0 .996.05 1.107.133Zm-103.292.712c-.032.052.084.408.258.79.486 1.067 1.135 3.017 1.55 4.655.206.814.405 1.558.442 1.653.117.296.568.416 1.556.416.772 0 1-.038 1.202-.202l.25-.201-.292-1.326c-.467-2.122-.778-3.01-1.27-3.63-.465-.584-1.375-1.223-2.651-1.862-.822-.41-.95-.446-1.045-.293Zm38.137 2.161c.38.062.954.236 1.277.388.79.373 1.954 1.484 2.373 2.267.612 1.144.683 1.656.742 5.393.065 4.097.153 3.844-1.342 3.841-.518 0-1.015-.047-1.103-.103-.137-.085-.17-.649-.216-3.615-.051-3.382-.063-3.534-.301-4.05-.491-1.062-1.334-1.655-2.358-1.66-.829-.003-1.637.342-2.281.973l-.549.538v3.848c0 4.467.126 4.071-1.291 4.071-1.437 0-1.292.656-1.292-5.823 0-4.214.032-5.634.129-5.73.176-.176 2.149-.176 2.325 0 .071.07.129.244.129.385v.257l.35-.232c.555-.37 1.249-.66 1.789-.752.715-.12.851-.12 1.619.004Zm21.427.172c1.767.486 3.308 2.113 3.807 4.02.255.974.332 2.166.15 2.317-.113.093-1.307.136-4.397.156l-4.242.028.034.268c.063.506.563 1.37 1.053 1.82 1.407 1.291 3.538 1.264 5.022-.065.222-.199.514-.362.649-.362.317 0 1.476 1.15 1.476 1.466 0 .324-1.058 1.25-1.862 1.63-.766.363-2.066.656-2.896.654-1.576-.005-3.259-.69-4.339-1.765-1.954-1.946-2.324-5.286-.855-7.719.486-.804.701-1.04 1.479-1.616 1.373-1.017 3.155-1.319 4.921-.832Zm12.427-.113c.14.14.167.376.142 1.26l-.03 1.087-.861.06c-1.082.074-1.713.349-2.42 1.053l-.54.538v3.703c0 4.424.094 4.131-1.321 4.131-.633 0-.961-.048-1.13-.167l-.24-.167v-5.545c0-4.17.032-5.578.129-5.675.176-.175 2.149-.175 2.325 0 .071.071.129.264.129.43 0 .35.11.379.366.097.59-.649 3.035-1.22 3.451-.805Zm21.974.162c1.361.418 2.529 1.445 3.22 2.828.581 1.163.901 3.127.565 3.462-.096.096-1.212.128-4.359.128h-4.229l.002.242c.006.626.715 1.72 1.433 2.212 1.352.926 3.106.825 4.511-.26.341-.264.708-.479.817-.479.193 0 1.524 1.282 1.524 1.468 0 .344-1.264 1.344-2.214 1.752-1.71.734-3.821.67-5.491-.17-2.251-1.13-3.46-3.53-3.153-6.261.424-3.775 3.793-6.024 7.374-4.922Zm-12.088.236c1.347.662 2.194 1.668 2.636 3.128.127.418.172 1.35.207 4.244.041 3.34.028 3.726-.132 3.885-.138.138-.389.177-1.138.177-1.486 0-1.392.252-1.392-3.724-.001-1.826-.048-3.465-.107-3.675-.168-.602-.704-1.353-1.198-1.679-.406-.267-.551-.3-1.324-.297-.999.003-1.486.202-2.278.93l-.474.434v7.677l-.239.167c-.334.233-1.879.233-2.213 0l-.239-.167V22.53c0-4.258.031-5.534.136-5.678.117-.159.297-.18 1.265-.154l1.128.03.034.349c.019.191.056.348.083.348.027 0 .245-.129.485-.287.818-.539 1.43-.685 2.741-.653 1.133.028 1.228.048 2.019.438Zm-24.672 1.953c-.321.089-.743.26-.939.38-.463.285-1.175 1.095-1.316 1.497l-.11.316h3.115c2.49 0 3.116-.028 3.116-.14 0-.233-.587-1.077-.978-1.406a3.175 3.175 0 0 0-2.888-.647Zm34.317-.024c-1.027.288-1.8.904-2.26 1.803l-.212.414h6.358l-.262-.51c-.693-1.348-2.265-2.089-3.624-1.707Zm-102.545.188c-.149.16-.229.455-.282 1.045-.04.453-.098.928-.129 1.055-.035.148.027.313.17.456.221.22.299.223 5.236.223 3.25 0 5.085-.039 5.22-.11.262-.14.262-.435 0-1.585-.325-1.432.186-1.306-5.293-1.306-4.629 0-4.718.004-4.922.222Zm-9.3 5.325c-.261.292-.413 1.846-.48 4.928-.047 2.178-.03 2.847.075 2.974.179.214 2.498.24 2.665.029.059-.074.14-1.123.18-2.331.04-1.209.14-2.915.225-3.792.105-1.086.12-1.66.046-1.796-.096-.177-.246-.2-1.325-.2-1.024 0-1.244.03-1.385.188Zm5.794.017c-.164.181-.201.647-.305 3.849-.147 4.533-.26 4.199 1.422 4.199.923 0 1.21-.036 1.343-.169.14-.14.17-.481.172-2.01.002-1.012.047-2.708.101-3.768.123-2.426.196-2.306-1.396-2.306-.997 0-1.175.028-1.337.206Zm6.013-.053c-.18.13-.215.313-.246 1.29-.026.784.004 1.187.094 1.295.111.134.95.157 5.764.157 5.502 0 5.636-.005 5.747-.212.148-.275-.06-2.102-.279-2.44l-.155-.242H67.63c-4.455 0-5.394.026-5.567.152Zm5.849 5.287c-.135.155-.177.742-.235 3.333-.039 1.73-.1 3.424-.136 3.764-.056.54-.035.649.164.847.204.203.351.229 1.306.229 1.468 0 1.462.007 1.546-1.783.246-5.216.217-6.225-.19-6.495-.065-.044-.607-.08-1.205-.08-.902-.002-1.114.03-1.25.185Zm6.003-.019c-.113.113-.17.369-.17.777-.004 1.188-.211 4.912-.331 5.946-.165 1.417-.12 1.469 1.259 1.469 1.036 0 1.506-.123 1.598-.418.156-.505.294-2.405.35-4.809.077-3.34.172-3.133-1.43-3.133-.862 0-1.144.037-1.276.168Zm58.923 3.181c1.572.79 1.007 3.106-.758 3.106-1.775 0-2.325-2.386-.73-3.168.488-.24.923-.222 1.488.062Zm-33.877 1c1.16.299 2.661 1.166 2.661 1.537 0 .271-1.155 1.616-1.388 1.616-.11 0-.424-.125-.7-.278-2.034-1.133-4.37-.458-4.396 1.27-.014.951.516 1.473 2.26 2.222 3.094 1.33 3.938 1.915 4.556 3.165.613 1.24.537 3.074-.178 4.288-.433.736-1.426 1.583-2.269 1.935-.688.288-.834.308-2.19.31-1.306 0-1.533-.029-2.243-.286a7.68 7.68 0 0 1-2.548-1.51c-.854-.756-.853-.827.014-1.697.404-.406.799-.737.877-.737.078 0 .427.235.774.523a7.73 7.73 0 0 0 1.26.83c.571.28.731.308 1.766.308 1.061 0 1.168-.02 1.585-.295.573-.377.883-.974.883-1.701 0-1.14-.692-1.8-2.853-2.717-2.464-1.047-3.344-1.699-3.952-2.93-.324-.654-.353-.796-.353-1.735 0-.939.03-1.081.353-1.736.567-1.147 1.827-2.133 3.113-2.434.676-.158 2.261-.131 2.968.051Zm-45.929 1.22c-.173.19-.18.302-.07 1.223.066.558.147 1.084.18 1.17.143.371.523.398 5.745.398 4.887 0 5.162-.01 5.4-.203.229-.184.255-.303.294-1.358.038-1.022.02-1.173-.152-1.298-.156-.114-1.301-.142-5.7-.142-5.329 0-5.512.007-5.697.21Zm98.938.026c.087.087.129.588.129 1.554v1.425h1.182c1.108 0 1.19.015 1.334.241.233.366.647 1.747.578 1.926-.063.164-1.169.296-2.485.297l-.629.001.037 2.98c.032 2.622.06 3.012.226 3.266.274.416.767.63 1.633.706l.761.068.031 1.056c.041 1.393.043 1.39-1.265 1.336-.821-.034-1.149-.1-1.642-.326-.858-.394-1.604-1.123-1.98-1.934l-.31-.668-.034-3.242-.034-3.242h-.842c-1.134 0-1.253-.104-1.458-1.277-.116-.663-.126-.94-.039-1.045.085-.102.437-.143 1.236-.143h1.117v-1.425c0-.966.042-1.467.129-1.554.083-.083.502-.13 1.163-.13.66 0 1.079.047 1.162.13Zm-40.457 2.93c2.741.643 4.54 2.98 4.54 5.896 0 2.89-1.698 5.155-4.374 5.837-2.262.576-4.506-.023-5.993-1.599-.818-.866-1.203-1.552-1.483-2.645-.67-2.605.341-5.303 2.511-6.702.579-.374 1.59-.772 2.227-.878.63-.105 1.933-.06 2.572.09Zm13.63-.002c.353.09.932.304 1.287.478 1.146.558 2.299 1.674 2.144 2.075-.096.248-1.451 1.356-1.659 1.356-.092 0-.405-.218-.697-.484-.768-.703-1.561-1.046-2.425-1.052-1.06-.006-1.764.275-2.484.992-.762.76-1.014 1.417-1.008 2.634.006 1.037.267 1.702.941 2.394.552.566 1.009.81 1.839.98 1.217.25 2.348-.085 3.365-1 .304-.274.655-.498.778-.498s.564.247.98.549c.983.714.988.856.066 1.757-1.158 1.13-2.753 1.768-4.419 1.765-2.43-.004-4.537-1.23-5.538-3.222-.553-1.1-.692-1.811-.629-3.205.08-1.732.62-2.93 1.854-4.111.613-.588 1.98-1.293 2.802-1.447.842-.157 2.1-.14 2.803.039Zm17.211 0c2.381.618 4.037 2.725 4.225 5.377.058.818.043.938-.134 1.067-.159.116-1.035.145-4.376.145-4.771 0-4.401-.097-3.871 1.018.331.694.918 1.292 1.654 1.683.393.21.622.246 1.538.246 1.247 0 1.716-.163 2.563-.893.285-.246.592-.447.682-.447.229 0 1.545 1.28 1.545 1.503 0 .23-.87 1.047-1.517 1.425-.89.519-1.681.732-2.95.793-.895.043-1.354.015-1.883-.118-2.082-.523-3.613-1.946-4.254-3.956-.321-1.006-.367-2.642-.103-3.67.536-2.091 2.03-3.626 4.056-4.17.76-.203 2.046-.204 2.825-.002Zm-9.111.18c.186.185.186 11.24 0 11.425-.083.082-.502.128-1.163.128-.66 0-1.079-.046-1.162-.128-.186-.186-.186-11.24 0-11.425.176-.175 2.149-.175 2.325 0Zm25.836.059c.123.103.933 1.682 1.8 3.51.867 1.827 1.608 3.355 1.645 3.396.038.04.722-1.43 1.522-3.27.799-1.838 1.559-3.45 1.69-3.583.216-.22.337-.241 1.376-.241.923 0 1.15.031 1.201.164.082.213-6.701 15.797-6.984 16.047-.175.154-.422.187-1.388.187-.885 0-1.189-.035-1.231-.144-.031-.079.503-1.414 1.187-2.967.684-1.552 1.243-2.878 1.243-2.947 0-.069-1.07-2.355-2.377-5.08-1.307-2.724-2.349-5.023-2.317-5.107.095-.247 2.333-.217 2.633.035ZM50.706 40.316c-.296.356.64 4.004 1.27 4.95.425.636 1.457 1.387 2.842 2.066 1.058.518 1.14.425.64-.724-.535-1.23-1.124-3.054-1.529-4.738-.416-1.735-.405-1.724-1.922-1.724-.928 0-1.187.033-1.3.17Zm5.842-.042c-.071.07-.128.252-.127.402.005.514.411 2.07.585 2.244.154.154.694.173 4.901.173 4.344 0 4.743-.015 4.915-.186.27-.269.487-2.257.278-2.553-.141-.201-.318-.208-5.285-.208-3.853 0-5.17.032-5.267.128Zm83.604-.028c-.829.25-1.692.939-2.054 1.637-.113.219-.206.424-.206.455 0 .032 1.406.058 3.124.058h3.123l-.218-.425c-.348-.68-.827-1.148-1.532-1.499-.528-.263-.785-.325-1.312-.317-.36.005-.777.046-.925.09Zm-30.996.172c-1.554.421-2.476 1.722-2.476 3.494 0 1.396.718 2.583 1.914 3.166 1.236.602 2.868.315 3.836-.675 1.321-1.351 1.346-3.606.055-5.012-.862-.94-2.108-1.304-3.329-.973Z" clip-rule="evenodd"/></svg>