<svg xmlns="http://www.w3.org/2000/svg" width="64" height="64" fill="none">
  <rect width="64" height="64" fill="#fff" rx="32"/>
  <path fill="#16191C" d="M30.527 37.124c0 2.961-2.354 5.543-5.922 5.543-4.024 0-6.605-3.265-6.605-7.289 0-10.173 6.985-13.59 11.767-14.045v4.631c-2.884.456-6.073 2.81-6.225 6.302.38-.228.911-.38 1.594-.38 3.417 0 5.39 2.05 5.39 5.238Zm14.956 0c0 2.961-2.354 5.543-5.922 5.543-4.024 0-6.605-3.265-6.605-7.289 0-10.173 6.985-13.59 11.768-14.045v4.631c-2.885.456-6.074 2.81-6.226 6.302.38-.228.911-.38 1.595-.38 3.416 0 5.39 2.05 5.39 5.238Z"/>
</svg>
