<svg xmlns="http://www.w3.org/2000/svg" width="218" height="64" fill="none" viewBox="0 0 218 64"><path fill="#ffffff" d="M97.307 39.506v6.5c0 .529-.315.82-.855.82s-.854-.291-.854-.82v-6.5c0-.528.315-.82.854-.82.54 0 .855.314.855.82Zm1.72-11.369h-5.43c-.473 0-.777.247-.777.63 0 .382.281.63.776.63h1.867v5.926c0 .528.315.82.854.82.54 0 .855-.292.855-.82v-5.926h1.867c.472 0 .753-.248.753-.63 0-.383-.28-.63-.753-.63h-.011Zm.754-10.762c-.45 0-.709.18-.843.608l-2.047 5.802h-.135l-2.058-5.769c-.146-.438-.416-.618-.877-.618-.54 0-.91.292-.91.742 0 .157.033.315.078.45l2.429 6.005c.247.652.652.945 1.338.945s1.068-.282 1.338-.934l2.429-6.061c.045-.135.079-.293.079-.428.022-.438-.337-.73-.855-.73l.034-.012Zm8.771 15.451-.067.034 1.293 2.047c.135.236.18.36.18.55 0 .417-.349.71-.855.71-.404 0-.584-.124-.877-.608l-1.462-2.44h-1.641v2.238c0 .528-.315.82-.855.82s-.855-.292-.855-.82v-6.399c0-.528.315-.82.855-.82h2.654c1.934 0 3.081.944 3.081 2.507 0 1-.54 1.822-1.462 2.181h.011Zm-.303-2.17c0-.798-.585-1.327-1.53-1.327h-1.608v2.676h1.631c.956 0 1.529-.494 1.507-1.349Zm-.315 8.03c-.517 0-.821.292-.821.786v4.544h-.135l-3.79-4.87c-.27-.337-.506-.46-.854-.46-.551 0-.855.292-.855.786v6.568c0 .495.304.787.821.787.517 0 .81-.292.81-.787v-4.577h.146l3.789 4.903c.27.337.484.46.855.46.54 0 .844-.28.844-.753v-6.59c0-.505-.282-.809-.81-.809v.011Zm68.563 6.758h-3.284v-2.137h3.137c.439 0 .709-.236.709-.585 0-.348-.27-.584-.709-.584h-3.137V40.09h3.284c.472 0 .776-.248.776-.63s-.282-.63-.776-.63h-4.139c-.539 0-.854.293-.854.821v6.275c0 .529.303.821.854.821h4.139c.472 0 .776-.247.776-.63 0-.416-.304-.663-.776-.663v-.011Zm-88.928-26.09c.337.552.517 1.181.54 1.856 0 .506-.113 1.023-.316 1.473-.112.259-.27.506-.438.742v.022l-.709 1.193h-.022L69.88 52.99v.022l-.608 1.034-.64 1.069h-.136c-.438 1.44-1.866 2.485-3.553 2.485-1.035 0-1.957-.382-2.631-1.023a3.707 3.707 0 0 1-.54-.641l-.169-.293-.337-.55-.405-.687-.843-1.44L43.272 24.63l-.708-1.181-.068-.113-.112-.18c-.045-.078-.101-.157-.146-.236l-.09-.146c-.236-.483-.349-1-.349-1.563 0-.82.281-1.597.754-2.227.753-1 2.012-1.653 3.44-1.653h2.688l32.342.012.022-.034h2.8c1.428 0 2.665.652 3.441 1.642.102.135.192.258.27.405h.012ZM60.86 24.652H53l7.736 13.112.113.203V24.65h.01Zm15.99 0h-7.59v12.876l.101-.169 7.501-12.707h-.011Zm73.433 14.158h-5.432c-.472 0-.776.247-.776.63 0 .382.281.63.776.63h1.867v5.926c0 .528.315.82.855.82.539 0 .854-.292.854-.82v-5.927h1.867c.472 0 .753-.247.753-.63 0-.382-.281-.629-.753-.629h-.011Zm-85.341-23.84c2.564 0 4.644-1.923 4.644-4.285 0-2.361-2.08-4.284-4.644-4.284s-4.644 1.923-4.644 4.284c0 2.362 2.08 4.285 4.644 4.285Zm50.469 10.56c.517 0 .81-.293.81-.788v-4.577h.146l3.79 4.903c.269.337.483.461.854.461.54 0 .844-.258.844-.753v-6.601c0-.506-.282-.787-.81-.787-.529 0-.821.292-.821.787v4.543h-.135l-3.79-4.87c-.27-.337-.506-.46-.854-.46-.54 0-.855.292-.855.787v6.567c0 .495.304.787.821.787Zm13.832 5.97-.922-.168c-1.035-.191-1.496-.506-1.496-1.057 0-.619.619-1.035 1.563-1.035.821 0 1.372.293 1.664.9.203.326.439.46.821.46.439 0 .72-.247.72-.618a.793.793 0 0 0-.067-.36c-.372-1.023-1.541-1.619-3.115-1.619-1.935 0-3.273.979-3.273 2.384 0 1.17.855 1.923 2.553 2.227l.922.169c1.102.202 1.563.528 1.563 1.079 0 .63-.708 1.08-1.709 1.08-.922 0-1.575-.327-1.867-.934-.202-.326-.416-.45-.787-.45-.439 0-.742.282-.742.675 0 .135.033.281.078.439.372.933 1.609 1.495 3.25 1.495 2.126 0 3.441-.956 3.441-2.507 0-1.192-.787-1.845-2.597-2.182v.023Zm26.269 7.186c-.54 0-.855.293-.855.821v6.5c0 .529.315.82.855.82s.855-.291.855-.82v-6.5c-.012-.506-.315-.82-.855-.82Zm11.403 0c-.45 0-.709.191-.844.607l-2.046 5.803h-.135v-.034l-2.058-5.757c-.135-.439-.405-.619-.877-.619-.54 0-.911.293-.911.742 0 .158.033.315.078.45l2.429 6.005c.248.653.653.945 1.339.945.686 0 1.09-.281 1.338-.933l2.429-6.062a1.44 1.44 0 0 0 .079-.438c.022-.416-.338-.709-.855-.709h.034Zm-37.267 0c-.54 0-.855.293-.855.821v6.5c0 .529.304.82.855.82.551 0 .854-.291.854-.82v-6.5c0-.506-.303-.82-.854-.82Zm11.672-10.548h-5.431c-.473 0-.776.247-.776.63 0 .382.303.63.776.63h1.866v5.926c0 .528.315.82.855.82s.855-.292.855-.82v-5.926h1.866c.473 0 .754-.248.754-.63 0-.383-.281-.63-.754-.63h-.011Zm.54 17.442c.079.202.112.337.112.483 0 .439-.348.742-.854.742s-.742-.18-.889-.697l-.472-1.304h-3.25l-.472 1.304c-.169.506-.416.709-.877.709-.517 0-.855-.293-.855-.743 0-.123.034-.314.113-.506l2.384-5.97c.236-.63.641-.912 1.304-.912.664 0 1.091.281 1.338.911l2.396 5.983h.022Zm-2.463-1.946-1.192-3.407h-.135l-1.169 3.407h2.496Zm-25.65-4.948c-.54 0-.855.293-.855.821v6.5c0 .529.315.82.855.82.539 0 .854-.291.854-.82v-6.5c0-.506-.303-.82-.854-.82Zm-2.935-18.51c0 1.608-1.226 2.688-3.048 2.688h-1.698v1.822c0 .528-.315.82-.855.82-.539 0-.854-.292-.854-.82v-6.387c0-.53.315-.821.854-.821h2.632c1.765 0 2.957 1.08 2.969 2.687v.011Zm-1.743.023c0-.945-.619-1.485-1.71-1.485h-1.293v2.97h1.293c1.091 0 1.71-.54 1.71-1.485Zm12.01 13.056v-4.42c.011-.506-.281-.82-.844-.82-.562 0-.854.292-.854.82v4.251c0 1.08-.72 1.766-1.878 1.766-1.159 0-1.901-.686-1.901-1.766v-4.25c0-.53-.315-.822-.854-.822-.54 0-.855.293-.855.821v4.42c0 1.777 1.406 2.924 3.587 2.924 2.182 0 3.587-1.147 3.587-2.924h.012Zm3.34 5.555h-5.432c-.472 0-.776.247-.776.63 0 .382.304.63.776.63h1.867v5.926c0 .528.315.82.854.82.54 0 .855-.292.855-.82v-5.927h1.867c.472 0 .753-.247.753-.63.023-.404-.281-.629-.753-.629h-.011Z"/></svg>