<svg width="48" height="48" viewBox="0 0 48 48" fill="none" xmlns="http://www.w3.org/2000/svg">
<path d="M37.4999 12V31.5C37.4999 31.8978 37.3418 32.2794 37.0605 32.5607C36.7792 32.842 36.3977 33 35.9999 33C35.602 33 35.2205 32.842 34.9392 32.5607C34.6579 32.2794 34.4999 31.8978 34.4999 31.5V15.6206L13.0611 37.0613C12.7796 37.3427 12.3979 37.5008 11.9999 37.5008C11.6018 37.5008 11.2201 37.3427 10.9386 37.0613C10.6571 36.7798 10.499 36.398 10.499 36C10.499 35.602 10.6571 35.2202 10.9386 34.9387L32.3792 13.5H16.4999C16.102 13.5 15.7205 13.342 15.4392 13.0607C15.1579 12.7794 14.9999 12.3978 14.9999 12C14.9999 11.6022 15.1579 11.2206 15.4392 10.9393C15.7205 10.658 16.102 10.5 16.4999 10.5H35.9999C36.3977 10.5 36.7792 10.658 37.0605 10.9393C37.3418 11.2206 37.4999 11.6022 37.4999 12Z" fill="white"/>
</svg>
