<svg width="164" height="40" viewBox="0 0 164 40" fill="none" xmlns="http://www.w3.org/2000/svg">
<g clip-path="url(#clip0_406_22738)">
<path d="M48.1045 28.2463H59.7719V24.7342H52.2514V11.5049H48.1045V28.2463Z" fill="#919498"/>
<path d="M66.6841 25.9043C65.0207 25.9043 64.1538 24.4526 64.1538 22.2751C64.1538 20.0975 65.0207 18.6224 66.6841 18.6224C68.3475 18.6224 69.2378 20.0975 69.2378 22.2751C69.2378 24.4526 68.3475 25.9043 66.6841 25.9043ZM66.7075 28.6204C70.5732 28.6204 73.1035 25.8809 73.1035 22.2751C73.1035 18.6692 70.5732 15.9297 66.7075 15.9297C62.8652 15.9297 60.2881 18.6692 60.2881 22.2751C60.2881 25.8809 62.8652 28.6204 66.7075 28.6204Z" fill="#919498"/>
<path d="M79.7945 32.3902C81.5751 32.3902 83.1448 31.9921 84.1991 31.0555C85.1597 30.1892 85.7923 28.878 85.7923 27.075V16.2575H82.1374V17.5453H82.0905C81.3877 16.5384 80.31 15.9062 78.7168 15.9062C75.7414 15.9062 73.6797 18.3882 73.6797 21.9004C73.6797 25.5765 76.1865 27.5902 78.8808 27.5902C80.3334 27.5902 81.2471 27.0048 81.95 26.2087H82.0437V27.4028C82.0437 28.8545 81.3643 29.6975 79.7477 29.6975C78.4825 29.6975 77.85 29.1589 77.6391 28.5267H73.9374C74.3123 31.0321 76.4911 32.3902 79.7945 32.3902ZM79.7711 24.757C78.342 24.757 77.4048 23.5862 77.4048 21.7833C77.4048 19.957 78.342 18.7862 79.7711 18.7862C81.3643 18.7862 82.2077 20.1443 82.2077 21.7599C82.2077 23.4458 81.4346 24.757 79.7711 24.757Z" fill="#919498"/>
<path d="M93.3081 25.9043C91.6447 25.9043 90.7778 24.4526 90.7778 22.2751C90.7778 20.0975 91.6447 18.6224 93.3081 18.6224C94.9715 18.6224 95.8618 20.0975 95.8618 22.2751C95.8618 24.4526 94.9715 25.9043 93.3081 25.9043ZM93.3315 28.6204C97.1972 28.6204 99.727 25.8809 99.727 22.2751C99.727 18.6692 97.1972 15.9297 93.3315 15.9297C89.4892 15.9297 86.9121 18.6692 86.9121 22.2751C86.9121 25.8809 89.4892 28.6204 93.3315 28.6204Z" fill="#919498"/>
<path d="M100.842 28.2463H104.661V16.2581H100.842V28.2463ZM100.842 14.5956H104.661V11.5049H100.842V14.5956Z" fill="#919498"/>
<path d="M106.318 32.2028H110.137V27.0048H110.184C110.934 28.0116 112.035 28.6204 113.581 28.6204C116.721 28.6204 118.806 26.1384 118.806 22.2516C118.806 18.6458 116.861 15.9062 113.675 15.9062C112.035 15.9062 110.863 16.6321 110.043 17.7092H109.973V16.2575H106.318V32.2028ZM112.597 25.6702C110.957 25.6702 110.02 24.3355 110.02 22.3921C110.02 20.4487 110.864 18.9736 112.527 18.9736C114.167 18.9736 114.94 20.3316 114.94 22.3921C114.94 24.4292 114.05 25.6702 112.597 25.6702Z" fill="#919498"/>
<path d="M125.022 28.6204C128.162 28.6204 130.481 27.2623 130.481 24.6399C130.481 21.5726 127.998 21.0341 125.889 20.6828C124.366 20.4019 123.007 20.2848 123.007 19.4419C123.007 18.6926 123.734 18.3414 124.671 18.3414C125.725 18.3414 126.451 18.6692 126.592 19.7463H130.106C129.919 17.3814 128.091 15.9062 124.694 15.9062C121.859 15.9062 119.516 17.2175 119.516 19.7463C119.516 22.556 121.742 23.118 123.827 23.4692C125.42 23.7502 126.873 23.8672 126.873 24.9443C126.873 25.717 126.147 26.1384 124.999 26.1384C123.734 26.1384 122.937 25.5531 122.796 24.3589H119.188C119.306 27.0048 121.508 28.6204 125.022 28.6204Z" fill="#919498"/>
<path d="M135.669 28.5973C137.333 28.5973 138.387 27.9417 139.254 26.771H139.324V28.2461H142.979V16.2578H139.16V22.9544C139.16 24.3827 138.364 25.3661 137.052 25.3661C135.833 25.3661 135.248 24.6403 135.248 23.329V16.2578H131.452V24.1251C131.452 26.7944 132.905 28.5973 135.669 28.5973Z" fill="#919498"/>
<path d="M144.641 28.2458H148.459V21.5258C148.459 20.0975 149.162 19.0906 150.357 19.0906C151.505 19.0906 152.044 19.8399 152.044 21.1277V28.2458H155.863V21.5258C155.863 20.0975 156.542 19.0906 157.761 19.0906C158.909 19.0906 159.447 19.8399 159.447 21.1277V28.2458H163.266V20.4487C163.266 17.756 161.907 15.9062 159.19 15.9062C157.643 15.9062 156.355 16.5619 155.418 18.0136H155.371C154.762 16.7258 153.567 15.9062 151.997 15.9062C150.263 15.9062 149.115 16.7258 148.366 17.9667H148.295V16.2575H144.641V28.2458Z" fill="#919498"/>
<path d="M24.8046 1.92855L20.9653 0.900391L17.7298 12.9683L14.8088 2.07331L10.9693 3.10146L14.1253 14.8727L6.26441 7.01647L3.45377 9.82543L12.0762 18.4428L1.33834 15.5673L0.30957 19.4044L12.042 22.5462C11.9077 21.9672 11.8366 21.3639 11.8366 20.744C11.8366 16.3561 15.3958 12.799 19.7863 12.799C24.1769 12.799 27.7361 16.3561 27.7361 20.744C27.7361 21.3599 27.6659 21.9595 27.5332 22.5351L38.1958 25.3904L39.2245 21.5533L27.4454 18.399L38.184 15.5233L37.1552 11.6862L25.3766 14.8404L33.2375 6.98421L30.4268 4.17525L21.924 12.673L24.8046 1.92855Z" fill="#919498"/>
<path d="M27.5226 22.5801C27.1934 23.9709 26.4985 25.2204 25.5449 26.2214L33.2695 33.9415L36.0802 31.1326L27.5226 22.5801Z" fill="#919498"/>
<path d="M25.4673 26.3018C24.5022 27.2868 23.2827 28.022 21.915 28.4008L24.7259 38.8847L28.5652 37.8565L25.4673 26.3018Z" fill="#919498"/>
<path d="M21.7713 28.4394C21.1368 28.6024 20.4717 28.6891 19.7863 28.6891C19.052 28.6891 18.341 28.5896 17.6659 28.4033L14.8525 38.8968L18.6919 39.9249L21.7713 28.4394Z" fill="#919498"/>
<path d="M17.5305 28.3644C16.1837 27.9668 14.9858 27.2223 14.0405 26.2344L6.29688 33.9734L9.10751 36.7824L17.5305 28.3644Z" fill="#919498"/>
<path d="M13.9761 26.1666C13.047 25.1725 12.3702 23.9397 12.048 22.5703L1.35059 25.435L2.37934 29.2721L13.9761 26.1666Z" fill="#919498"/>
</g>
<defs>
<clipPath id="clip0_406_22738">
<rect width="164" height="40" fill="white"/>
</clipPath>
</defs>
</svg>
