<svg width="166" height="40" viewBox="0 0 166 40" fill="none" xmlns="http://www.w3.org/2000/svg">
<g clip-path="url(#clip0_406_22727)">
<path d="M50.0713 28.6077H61.7421V25.0955H54.2193V11.8662H50.0713V28.6077Z" fill="#919498"/>
<path d="M68.6566 26.2666C66.9927 26.2666 66.1256 24.8149 66.1256 22.6374C66.1256 20.4598 66.9927 18.9847 68.6566 18.9847C70.3205 18.9847 71.2111 20.4598 71.2111 22.6374C71.2111 24.8149 70.3205 26.2666 68.6566 26.2666ZM68.6801 28.9827C72.5469 28.9827 75.0779 26.2432 75.0779 22.6374C75.0779 19.0315 72.5469 16.292 68.6801 16.292C64.8367 16.292 62.2588 19.0315 62.2588 22.6374C62.2588 26.2432 64.8367 28.9827 68.6801 28.9827Z" fill="#919498"/>
<path d="M81.7709 32.7525C83.552 32.7525 85.1222 32.3544 86.1767 31.4178C87.1376 30.5515 87.7703 29.2403 87.7703 27.4373V16.6198H84.1144V17.9076H84.0676C83.3645 16.9008 82.2865 16.2686 80.6929 16.2686C77.7166 16.2686 75.6543 18.7505 75.6543 22.2627C75.6543 25.9388 78.1619 27.9525 80.8569 27.9525C82.3099 27.9525 83.2239 27.3671 83.927 26.571H84.0207V27.7651C84.0207 29.2168 83.3411 30.0598 81.724 30.0598C80.4585 30.0598 79.8258 29.5212 79.6149 28.889H75.9121C76.287 31.3944 78.4665 32.7525 81.7709 32.7525ZM81.7475 25.1193C80.3179 25.1193 79.3805 23.9486 79.3805 22.1456C79.3805 20.3193 80.3179 19.1486 81.7475 19.1486C83.3411 19.1486 84.1847 20.5066 84.1847 22.1222C84.1847 23.8081 83.4114 25.1193 81.7475 25.1193Z" fill="#919498"/>
<path d="M95.2875 26.2666C93.6236 26.2666 92.7565 24.8149 92.7565 22.6374C92.7565 20.4598 93.6236 18.9847 95.2875 18.9847C96.9514 18.9847 97.8415 20.4598 97.8415 22.6374C97.8415 24.8149 96.9514 26.2666 95.2875 26.2666ZM95.3109 28.9827C99.1773 28.9827 101.708 26.2432 101.708 22.6374C101.708 19.0315 99.1773 16.292 95.3109 16.292C91.4675 16.292 88.8896 19.0315 88.8896 22.6374C88.8896 26.2432 91.4675 28.9827 95.3109 28.9827Z" fill="#919498"/>
<path d="M102.824 28.6077H106.644V16.6194H102.824V28.6077ZM102.824 14.9569H106.644V11.8662H102.824V14.9569Z" fill="#919498"/>
<path d="M108.302 32.5651H112.122V27.3671H112.169C112.919 28.3739 114.02 28.9827 115.567 28.9827C118.707 28.9827 120.793 26.5007 120.793 22.6139C120.793 19.0081 118.848 16.2686 115.66 16.2686C114.02 16.2686 112.848 16.9944 112.028 18.0715H111.958V16.6198H108.302V32.5651ZM114.582 26.0325C112.942 26.0325 112.005 24.6978 112.005 22.7544C112.005 20.811 112.848 19.3359 114.512 19.3359C116.153 19.3359 116.926 20.6939 116.926 22.7544C116.926 24.7915 116.035 26.0325 114.582 26.0325Z" fill="#919498"/>
<path d="M127.011 28.9827C130.152 28.9827 132.472 27.6247 132.472 25.0022C132.472 21.9349 129.987 21.3964 127.878 21.0451C126.355 20.7642 124.996 20.6471 124.996 19.8042C124.996 19.0549 125.722 18.7037 126.66 18.7037C127.714 18.7037 128.441 19.0315 128.581 20.1086H132.097C131.909 17.7437 130.081 16.2686 126.683 16.2686C123.847 16.2686 121.504 17.5798 121.504 20.1086C121.504 22.9183 123.73 23.4803 125.816 23.8315C127.41 24.1125 128.863 24.2295 128.863 25.3066C128.863 26.0793 128.136 26.5008 126.988 26.5008C125.722 26.5008 124.925 25.9154 124.785 24.7212H121.176C121.293 27.3671 123.496 28.9827 127.011 28.9827Z" fill="#919498"/>
<path d="M137.661 28.9596C139.325 28.9596 140.379 28.304 141.246 27.1333H141.317V28.6084H144.973V16.6201H141.153V23.3167C141.153 24.745 140.356 25.7284 139.043 25.7284C137.825 25.7284 137.239 25.0026 137.239 23.6913V16.6201H133.442V24.4874C133.442 27.1567 134.895 28.9596 137.661 28.9596Z" fill="#919498"/>
<path d="M146.635 28.6081H150.455V21.8881C150.455 20.4598 151.158 19.4529 152.353 19.4529C153.501 19.4529 154.04 20.2022 154.04 21.49V28.6081H157.86V21.8881C157.86 20.4598 158.54 19.4529 159.759 19.4529C160.907 19.4529 161.446 20.2022 161.446 21.49V28.6081H165.266V20.811C165.266 18.1183 163.907 16.2686 161.188 16.2686C159.641 16.2686 158.352 16.9242 157.415 18.3759H157.368C156.759 17.0881 155.564 16.2686 153.993 16.2686C152.259 16.2686 151.111 17.0881 150.361 18.329H150.291V16.6198H146.635V28.6081Z" fill="#919498"/>
<path fill-rule="evenodd" clip-rule="evenodd" d="M19.628 39.3398C30.4139 39.3398 39.1574 30.6039 39.1574 19.8276C39.1574 9.05133 30.4139 0.31543 19.628 0.31543C8.84223 0.31543 0.0986328 9.05133 0.0986328 19.8276C0.0986328 30.6039 8.84223 39.3398 19.628 39.3398ZM22.6424 15.3911C24.3071 13.7278 24.3071 11.0311 22.6424 9.36778C20.9776 7.70448 18.2785 7.70448 16.6137 9.36778C14.9491 11.0311 14.9491 13.7278 16.6137 15.3911L19.628 18.4027L22.6424 15.3911ZM24.0685 22.8393C25.7333 24.5026 28.4324 24.5026 30.0971 22.8393C31.7618 21.176 31.7618 18.4793 30.0971 16.816C28.4324 15.1528 25.7333 15.1528 24.0685 16.816L21.0542 19.8277L24.0685 22.8393ZM22.6424 30.2875C24.3071 28.6242 24.3071 25.9275 22.6424 24.2642L19.628 21.2526L16.6137 24.2642C14.9491 25.9275 14.9491 28.6242 16.6137 30.2875C18.2785 31.9508 20.9776 31.9508 22.6424 30.2875ZM9.15894 22.8393C7.49422 21.176 7.49422 18.4793 9.15894 16.816C10.8238 15.1528 13.5228 15.1528 15.1876 16.816L18.2019 19.8277L15.1876 22.8393C13.5228 24.5026 10.8238 24.5026 9.15894 22.8393Z" fill="#919498"/>
</g>
<defs>
<clipPath id="clip0_406_22727">
<rect width="166" height="40" fill="white"/>
</clipPath>
</defs>
</svg>
