<svg width="166" height="40" viewBox="0 0 166 40" fill="none" xmlns="http://www.w3.org/2000/svg">
<g clip-path="url(#clip0_406_22754)">
<path d="M50.6396 27.4514H62.3104V23.9392H54.7877V10.71H50.6396V27.4514Z" fill="#919498"/>
<path d="M69.225 25.1104C67.5611 25.1104 66.694 23.6587 66.694 21.4811C66.694 19.3035 67.5611 17.8284 69.225 17.8284C70.8889 17.8284 71.7794 19.3035 71.7794 21.4811C71.7794 23.6587 70.8889 25.1104 69.225 25.1104ZM69.2484 27.8265C73.1152 27.8265 75.6463 25.087 75.6463 21.4811C75.6463 17.8753 73.1152 15.1357 69.2484 15.1357C65.405 15.1357 62.8271 17.8753 62.8271 21.4811C62.8271 25.087 65.405 27.8265 69.2484 27.8265Z" fill="#919498"/>
<path d="M82.3393 31.5962C84.1204 31.5962 85.6905 31.1982 86.7451 30.2616C87.706 29.3952 88.3387 28.084 88.3387 26.2811V15.4635H84.6828V16.7513H84.6359C83.9329 15.7445 82.8548 15.1123 81.2612 15.1123C78.285 15.1123 76.2227 17.5943 76.2227 21.1065C76.2227 24.7825 78.7302 26.7962 81.4253 26.7962C82.8783 26.7962 83.7923 26.2108 84.4953 25.4147H84.5891V26.6089C84.5891 28.0606 83.9094 28.9035 82.2924 28.9035C81.0269 28.9035 80.3941 28.365 80.1832 27.7328H76.4804C76.8554 30.2382 79.0349 31.5962 82.3393 31.5962ZM82.3158 23.963C80.8863 23.963 79.9489 22.7923 79.9489 20.9894C79.9489 19.163 80.8863 17.9923 82.3158 17.9923C83.9094 17.9923 84.7531 19.3504 84.7531 20.966C84.7531 22.6518 83.9797 23.963 82.3158 23.963Z" fill="#919498"/>
<path d="M95.8558 25.1104C94.1919 25.1104 93.3248 23.6587 93.3248 21.4811C93.3248 19.3035 94.1919 17.8284 95.8558 17.8284C97.5198 17.8284 98.4103 19.3035 98.4103 21.4811C98.4103 23.6587 97.5198 25.1104 95.8558 25.1104ZM95.8793 27.8265C99.7461 27.8265 102.277 25.087 102.277 21.4811C102.277 17.8753 99.7461 15.1357 95.8793 15.1357C92.0359 15.1357 89.458 17.8753 89.458 21.4811C89.458 25.087 92.0359 27.8265 95.8793 27.8265Z" fill="#919498"/>
<path d="M103.393 27.4514H107.213V15.4631H103.393V27.4514ZM103.393 13.8007H107.213V10.71H103.393V13.8007Z" fill="#919498"/>
<path d="M108.87 31.4089H112.69V26.2108H112.737C113.487 27.2177 114.588 27.8265 116.135 27.8265C119.275 27.8265 121.361 25.3445 121.361 21.4577C121.361 17.8518 119.416 15.1123 116.229 15.1123C114.588 15.1123 113.417 15.8382 112.596 16.9152H112.526V15.4635H108.87V31.4089ZM115.151 24.8762C113.51 24.8762 112.573 23.5416 112.573 21.5982C112.573 19.6547 113.417 18.1796 115.08 18.1796C116.721 18.1796 117.494 19.5377 117.494 21.5982C117.494 23.6352 116.604 24.8762 115.151 24.8762Z" fill="#919498"/>
<path d="M127.581 27.8265C130.721 27.8265 133.041 26.4684 133.041 23.846C133.041 20.7786 130.557 20.2401 128.448 19.8889C126.924 19.6079 125.565 19.4908 125.565 18.6479C125.565 17.8986 126.292 17.5474 127.229 17.5474C128.284 17.5474 129.01 17.8752 129.151 18.9523H132.666C132.478 16.5874 130.651 15.1123 127.252 15.1123C124.417 15.1123 122.073 16.4235 122.073 18.9523C122.073 21.7621 124.3 22.324 126.385 22.6752C127.979 22.9562 129.432 23.0733 129.432 24.1504C129.432 24.923 128.705 25.3445 127.557 25.3445C126.292 25.3445 125.495 24.7591 125.354 23.565H121.745C121.862 26.2108 124.065 27.8265 127.581 27.8265Z" fill="#919498"/>
<path d="M138.23 27.8034C139.894 27.8034 140.949 27.1478 141.816 25.977H141.886V27.4522H145.542V15.4639H141.722V22.1605C141.722 23.5887 140.925 24.5722 139.613 24.5722C138.394 24.5722 137.808 23.8463 137.808 22.5351V15.4639H134.012V23.3312C134.012 26.0005 135.465 27.8034 138.23 27.8034Z" fill="#919498"/>
<path d="M147.203 27.4518H151.023V20.7318C151.023 19.3035 151.726 18.2967 152.921 18.2967C154.07 18.2967 154.609 19.046 154.609 20.3338V27.4518H158.429V20.7318C158.429 19.3035 159.108 18.2967 160.327 18.2967C161.475 18.2967 162.014 19.046 162.014 20.3338V27.4518H165.834V19.6547C165.834 16.9621 164.475 15.1123 161.756 15.1123C160.21 15.1123 158.921 15.7679 157.983 17.2196H157.936C157.327 15.9318 156.132 15.1123 154.562 15.1123C152.828 15.1123 151.679 15.9318 150.929 17.1728H150.859V15.4635H147.203V27.4518Z" fill="#919498"/>
<path fill-rule="evenodd" clip-rule="evenodd" d="M20.1974 39.1591C30.9832 39.1591 39.7268 30.4232 39.7268 19.6469C39.7268 8.87068 30.9832 0.134766 20.1974 0.134766C9.41157 0.134766 0.667969 8.87068 0.667969 19.6469C0.667969 30.4232 9.41157 39.1591 20.1974 39.1591ZM26.2899 9.22437C26.5864 8.17189 25.5642 7.54953 24.6306 8.21408L11.5977 17.4904C10.5852 18.2111 10.7445 19.6469 11.837 19.6469H15.2689V19.6204H21.9575L16.5075 21.5417L14.1049 30.0696C13.8084 31.1221 14.8305 31.7444 15.7642 31.0798L28.7971 21.8035C29.8096 21.0828 29.6502 19.6469 28.5578 19.6469H23.3535L26.2899 9.22437Z" fill="#919498"/>
</g>
<defs>
<clipPath id="clip0_406_22754">
<rect width="166" height="40" fill="white"/>
</clipPath>
</defs>
</svg>
