<svg width="24" height="25" viewBox="0 0 24 25" fill="none" xmlns="http://www.w3.org/2000/svg">
<path d="M21 14V20C21 20.1989 20.921 20.3897 20.7803 20.5303C20.6397 20.671 20.4489 20.75 20.25 20.75H3.75C3.55109 20.75 3.36032 20.671 3.21967 20.5303C3.07902 20.3897 3 20.1989 3 20V14C3 13.8011 3.07902 13.6103 3.21967 13.4697C3.36032 13.329 3.55109 13.25 3.75 13.25C3.94891 13.25 4.13968 13.329 4.28033 13.4697C4.42098 13.6103 4.5 13.8011 4.5 14V19.25H19.5V14C19.5 13.8011 19.579 13.6103 19.7197 13.4697C19.8603 13.329 20.0511 13.25 20.25 13.25C20.4489 13.25 20.6397 13.329 20.7803 13.4697C20.921 13.6103 21 13.8011 21 14ZM11.4694 14.5306C11.539 14.6004 11.6217 14.6557 11.7128 14.6934C11.8038 14.7312 11.9014 14.7506 12 14.7506C12.0986 14.7506 12.1962 14.7312 12.2872 14.6934C12.3783 14.6557 12.461 14.6004 12.5306 14.5306L16.2806 10.7806C16.3503 10.7109 16.4056 10.6282 16.4433 10.5372C16.481 10.4461 16.5004 10.3485 16.5004 10.25C16.5004 10.1515 16.481 10.0539 16.4433 9.96283C16.4056 9.87178 16.3503 9.78906 16.2806 9.71937C16.2109 9.64969 16.1282 9.59442 16.0372 9.5567C15.9461 9.51899 15.8485 9.49958 15.75 9.49958C15.6515 9.49958 15.5539 9.51899 15.4628 9.5567C15.3718 9.59442 15.2891 9.64969 15.2194 9.71937L12.75 12.1897V3.5C12.75 3.30109 12.671 3.11032 12.5303 2.96967C12.3897 2.82902 12.1989 2.75 12 2.75C11.8011 2.75 11.6103 2.82902 11.4697 2.96967C11.329 3.11032 11.25 3.30109 11.25 3.5V12.1897L8.78063 9.71937C8.63989 9.57864 8.44902 9.49958 8.25 9.49958C8.05098 9.49958 7.86011 9.57864 7.71937 9.71937C7.57864 9.86011 7.49958 10.051 7.49958 10.25C7.49958 10.449 7.57864 10.6399 7.71937 10.7806L11.4694 14.5306Z" fill="white"/>
</svg>
