<svg width="105" height="105" viewBox="0 0 105 105" fill="none" xmlns="http://www.w3.org/2000/svg">
<g filter="url(#filter0_d_406_22771)">
<path d="M52 14.625C44.6079 14.625 37.3819 16.817 31.2356 20.9238C25.0893 25.0306 20.2988 30.8678 17.47 37.6972C14.6412 44.5266 13.901 52.0415 15.3432 59.2915C16.7853 66.5415 20.3449 73.2011 25.5719 78.4281C30.7989 83.6551 37.4585 87.2147 44.7085 88.6568C51.9586 90.099 59.4734 89.3588 66.3028 86.53C73.1322 83.7012 78.9694 78.9107 83.0762 72.7644C87.183 66.6181 89.375 59.3921 89.375 52C89.3636 42.091 85.4222 32.5912 78.4155 25.5845C71.4088 18.5778 61.909 14.6364 52 14.625ZM83.625 52C83.6275 54.9166 83.2248 57.8193 82.4283 60.625H68.5888C69.4704 54.9088 69.4704 49.0912 68.5888 43.375H82.4283C83.2248 46.1807 83.6275 49.0834 83.625 52ZM42.6563 66.375H61.3438C59.5027 72.4074 56.3067 77.939 52 82.5469C47.695 77.9378 44.4992 72.4066 42.6563 66.375ZM41.2547 60.625C40.2676 54.9174 40.2676 49.0826 41.2547 43.375H62.7741C63.7611 49.0826 63.7611 54.9174 62.7741 60.625H41.2547ZM20.375 52C20.3725 49.0834 20.7753 46.1807 21.5717 43.375H35.4113C34.5296 49.0912 34.5296 54.9088 35.4113 60.625H21.5717C20.7753 57.8193 20.3725 54.9166 20.375 52ZM61.3438 37.625H42.6563C44.4973 31.5926 47.6933 26.061 52 21.4531C56.3051 26.0622 59.5009 31.5934 61.3438 37.625ZM80.1499 37.625H67.3489C65.7355 31.7058 63.0163 26.1454 59.3349 21.2375C63.7829 22.306 67.9473 24.3237 71.5425 27.1523C75.1378 29.9809 78.0789 33.5534 80.1642 37.625H80.1499ZM44.6652 21.2375C40.9837 26.1454 38.2645 31.7058 36.6511 37.625H23.8358C25.9211 33.5534 28.8623 29.9809 32.4575 27.1523C36.0528 24.3237 40.2171 22.306 44.6652 21.2375ZM23.8358 66.375H36.6511C38.2645 72.2942 40.9837 77.8546 44.6652 82.7625C40.2171 81.694 36.0528 79.6763 32.4575 76.8477C28.8623 74.0191 25.9211 70.4466 23.8358 66.375ZM59.3349 82.7625C63.0163 77.8546 65.7355 72.2942 67.3489 66.375H80.1642C78.0789 70.4466 75.1378 74.0191 71.5425 76.8477C67.9473 79.6763 63.7829 81.694 59.3349 82.7625Z" fill="url(#paint0_linear_406_22771)" shape-rendering="crispEdges"/>
</g>
<defs>
<filter id="filter0_d_406_22771" x="0.124999" y="0.124999" width="104.75" height="104.75" filterUnits="userSpaceOnUse" color-interpolation-filters="sRGB">
<feFlood flood-opacity="0" result="BackgroundImageFix"/>
<feColorMatrix in="SourceAlpha" type="matrix" values="0 0 0 0 0 0 0 0 0 0 0 0 0 0 0 0 0 0 127 0" result="hardAlpha"/>
<feOffset dx="0.5" dy="0.5"/>
<feGaussianBlur stdDeviation="7.5"/>
<feComposite in2="hardAlpha" operator="out"/>
<feColorMatrix type="matrix" values="0 0 0 0 0.0588235 0 0 0 0 0.0901961 0 0 0 0 0.117647 0 0 0 0.15 0"/>
<feBlend mode="normal" in2="BackgroundImageFix" result="effect1_dropShadow_406_22771"/>
<feBlend mode="normal" in="SourceGraphic" in2="effect1_dropShadow_406_22771" result="shape"/>
</filter>
<linearGradient id="paint0_linear_406_22771" x1="52" y1="14.625" x2="52" y2="89.375" gradientUnits="userSpaceOnUse">
<stop stop-color="white"/>
<stop offset="1" stop-color="white" stop-opacity="0"/>
</linearGradient>
</defs>
</svg>
