<svg width="99" height="108" viewBox="0 0 99 108" fill="none" xmlns="http://www.w3.org/2000/svg">
<g filter="url(#filter0_d_406_22769)">
<path d="M77.75 40.75H66.25V32.125C66.25 27.55 64.4326 23.1624 61.1976 19.9274C57.9626 16.6924 53.575 14.875 49 14.875C44.425 14.875 40.0374 16.6924 36.8024 19.9274C33.5674 23.1624 31.75 27.55 31.75 32.125V40.75H20.25C18.725 40.75 17.2625 41.3558 16.1841 42.4341C15.1058 43.5125 14.5 44.975 14.5 46.5V86.75C14.5 88.275 15.1058 89.7375 16.1841 90.8159C17.2625 91.8942 18.725 92.5 20.25 92.5H77.75C79.275 92.5 80.7375 91.8942 81.8159 90.8159C82.8942 89.7375 83.5 88.275 83.5 86.75V46.5C83.5 44.975 82.8942 43.5125 81.8159 42.4341C80.7375 41.3558 79.275 40.75 77.75 40.75ZM37.5 32.125C37.5 29.075 38.7116 26.1499 40.8683 23.9933C43.0249 21.8366 45.95 20.625 49 20.625C52.05 20.625 54.9751 21.8366 57.1317 23.9933C59.2884 26.1499 60.5 29.075 60.5 32.125V40.75H37.5V32.125ZM77.75 86.75H20.25V46.5H77.75V86.75ZM53.3125 66.625C53.3125 67.4779 53.0596 68.3117 52.5857 69.0209C52.1118 69.7301 51.4383 70.2828 50.6503 70.6092C49.8623 70.9356 48.9952 71.021 48.1587 70.8546C47.3221 70.6882 46.5537 70.2775 45.9506 69.6744C45.3475 69.0713 44.9368 68.3029 44.7704 67.4663C44.604 66.6298 44.6894 65.7627 45.0158 64.9747C45.3422 64.1867 45.8949 63.5132 46.6041 63.0393C47.3133 62.5654 48.1471 62.3125 49 62.3125C50.1437 62.3125 51.2406 62.7669 52.0494 63.5756C52.8581 64.3844 53.3125 65.4813 53.3125 66.625Z" fill="url(#paint0_linear_406_22769)" shape-rendering="crispEdges"/>
</g>
<defs>
<filter id="filter0_d_406_22769" x="-9.53674e-07" y="0.374999" width="99" height="107.625" filterUnits="userSpaceOnUse" color-interpolation-filters="sRGB">
<feFlood flood-opacity="0" result="BackgroundImageFix"/>
<feColorMatrix in="SourceAlpha" type="matrix" values="0 0 0 0 0 0 0 0 0 0 0 0 0 0 0 0 0 0 127 0" result="hardAlpha"/>
<feOffset dx="0.5" dy="0.5"/>
<feGaussianBlur stdDeviation="7.5"/>
<feComposite in2="hardAlpha" operator="out"/>
<feColorMatrix type="matrix" values="0 0 0 0 0.0588235 0 0 0 0 0.0901961 0 0 0 0 0.117647 0 0 0 0.15 0"/>
<feBlend mode="normal" in2="BackgroundImageFix" result="effect1_dropShadow_406_22769"/>
<feBlend mode="normal" in="SourceGraphic" in2="effect1_dropShadow_406_22769" result="shape"/>
</filter>
<linearGradient id="paint0_linear_406_22769" x1="49" y1="14.875" x2="49" y2="92.5" gradientUnits="userSpaceOnUse">
<stop stop-color="white"/>
<stop offset="1" stop-color="white" stop-opacity="0"/>
</linearGradient>
</defs>
</svg>
