<svg width="142" height="34" viewBox="0 0 142 34" fill="none" xmlns="http://www.w3.org/2000/svg">
<path d="M17.6195 26.6894C17.6482 23.7523 16.9036 21.3638 15.9564 21.3545C15.0091 21.3453 14.218 23.7188 14.1893 26.6559C14.1605 29.593 14.9052 31.9816 15.8524 31.9908C16.7996 32.0001 17.5908 29.6266 17.6195 26.6894Z" fill="white"/>
<path d="M12.1262 26.0218C13.7384 23.5665 14.4034 21.1546 13.6116 20.6347C12.8197 20.1147 10.8709 21.6836 9.2587 24.1389C7.64647 26.5942 6.98145 29.0061 7.77326 29.5261C8.56513 30.046 10.5139 28.4771 12.1262 26.0218Z" fill="white"/>
<path d="M7.85877 22.4999C10.5425 21.3061 12.406 19.6368 12.021 18.7712C11.636 17.9057 9.14837 18.1718 6.46459 19.3656C3.78084 20.5593 1.91734 22.2287 2.30233 23.0942C2.68731 23.9598 5.17502 23.6937 7.85877 22.4999Z" fill="white"/>
<path d="M11.6988 16.3432C11.8429 15.4069 9.60628 14.2857 6.70324 13.8389C3.80013 13.392 1.32989 13.7888 1.18579 14.7251C1.04169 15.6613 3.27828 16.7825 6.18137 17.2293C9.08443 17.6762 11.5547 17.2794 11.6988 16.3432Z" fill="white"/>
<path d="M12.7413 14.113C13.3686 13.4032 12.0929 11.2509 9.89204 9.30579C7.69115 7.36065 5.39842 6.35921 4.77111 7.069C4.14379 7.77882 5.41944 9.93107 7.62036 11.8762C9.82126 13.8214 12.114 14.8228 12.7413 14.113Z" fill="white"/>
<path d="M14.8171 12.8102C15.7286 12.5523 15.8191 10.052 15.0194 7.22575C14.2196 4.39946 12.8324 2.31738 11.9209 2.57531C11.0094 2.83323 10.9188 5.33348 11.7186 8.15981C12.5183 10.986 13.9056 13.0682 14.8171 12.8102Z" fill="white"/>
<path d="M20.4533 8.24698C21.3087 5.437 21.2675 2.93544 20.3612 2.65959C19.455 2.38374 18.027 4.43805 17.1716 7.24803C16.3163 10.058 16.3575 12.5596 17.2638 12.8354C18.17 13.1112 19.598 11.057 20.4533 8.24698Z" fill="white"/>
<path d="M24.4811 12.0441C26.7196 10.1423 28.0371 8.01539 27.4237 7.29348C26.8104 6.57156 24.4985 7.52803 22.2601 9.42972C20.0216 11.3315 18.7041 13.4584 19.3174 14.1803C19.9307 14.9022 22.2426 13.9458 24.4811 12.0441Z" fill="white"/>
<path d="M25.8125 17.417C28.7238 17.0275 30.9821 15.9507 30.8564 15.0117C30.7309 14.0728 28.2689 13.6275 25.3576 14.0169C22.4463 14.4064 20.188 15.4833 20.3136 16.4222C20.4392 17.3611 22.9011 17.8065 25.8125 17.417Z" fill="white"/>
<path d="M29.5683 23.362C29.9702 22.5043 28.14 20.7985 25.4803 19.552C22.8207 18.3056 20.3387 17.9905 19.9367 18.8482C19.5347 19.706 21.3649 21.4118 24.0246 22.6583C26.6843 23.9047 29.1663 24.2198 29.5683 23.362Z" fill="white"/>
<path d="M23.9736 29.691C24.7755 29.1868 24.1582 26.7622 22.5947 24.2756C21.0313 21.7891 19.1137 20.1821 18.3118 20.6863C17.5099 21.1905 18.1272 23.615 19.6907 26.1016C21.2541 28.5882 23.1717 30.1953 23.9736 29.691Z" fill="white"/>
<path d="M49.264 25.288C47.648 25.288 46.208 24.92 44.944 24.184C43.696 23.432 42.712 22.408 41.992 21.112C41.288 19.8 40.936 18.296 40.936 16.6C40.936 14.904 41.288 13.408 41.992 12.112C42.712 10.8 43.696 9.776 44.944 9.04C46.192 8.288 47.624 7.912 49.24 7.912C50.328 7.912 51.352 8.112 52.312 8.512C53.272 8.896 54.12 9.432 54.856 10.12C55.608 10.808 56.184 11.608 56.584 12.52L54.04 13.552C53.752 12.944 53.36 12.408 52.864 11.944C52.384 11.464 51.832 11.096 51.208 10.84C50.584 10.584 49.928 10.456 49.24 10.456C48.184 10.456 47.24 10.72 46.408 11.248C45.592 11.776 44.944 12.504 44.464 13.432C44 14.344 43.768 15.4 43.768 16.6C43.768 17.8 44 18.864 44.464 19.792C44.944 20.72 45.6 21.448 46.432 21.976C47.28 22.504 48.24 22.768 49.312 22.768C50.016 22.768 50.672 22.632 51.28 22.36C51.904 22.072 52.456 21.68 52.936 21.184C53.432 20.688 53.824 20.112 54.112 19.456L56.656 20.488C56.256 21.432 55.688 22.272 54.952 23.008C54.216 23.728 53.36 24.288 52.384 24.688C51.408 25.088 50.368 25.288 49.264 25.288ZM60.6078 18.616C60.6078 17.32 60.8558 16.256 61.3518 15.424C61.8478 14.592 62.4878 13.976 63.2718 13.576C64.0718 13.16 64.9038 12.952 65.7678 12.952V15.52C65.0318 15.52 64.3358 15.624 63.6797 15.832C63.0398 16.024 62.5198 16.344 62.1198 16.792C61.7198 17.24 61.5198 17.832 61.5198 18.568L60.6078 18.616ZM58.8318 25V13H61.5198V25H58.8318ZM72.9025 25.288C71.7345 25.288 70.6945 25.024 69.7825 24.496C68.8865 23.952 68.1745 23.208 67.6465 22.264C67.1345 21.32 66.8785 20.232 66.8785 19C66.8785 17.768 67.1425 16.68 67.6705 15.736C68.1985 14.792 68.9185 14.056 69.8305 13.528C70.7585 12.984 71.8145 12.712 72.9985 12.712C74.0705 12.712 75.0385 12.992 75.9025 13.552C76.7665 14.096 77.4465 14.888 77.9425 15.928C78.4545 16.968 78.7105 18.208 78.7105 19.648H69.2785L69.6385 19.312C69.6385 20.048 69.7985 20.688 70.1185 21.232C70.4385 21.76 70.8625 22.168 71.3905 22.456C71.9185 22.744 72.5025 22.888 73.1425 22.888C73.8785 22.888 74.4865 22.728 74.9665 22.408C75.4465 22.072 75.8225 21.64 76.0945 21.112L78.4705 22.12C78.1345 22.76 77.7025 23.32 77.1745 23.8C76.6625 24.28 76.0465 24.648 75.3265 24.904C74.6225 25.16 73.8145 25.288 72.9025 25.288ZM69.8065 17.92L69.4225 17.584H76.1905L75.8305 17.92C75.8305 17.264 75.6865 16.728 75.3985 16.312C75.1105 15.88 74.7425 15.56 74.2945 15.352C73.8625 15.128 73.4065 15.016 72.9265 15.016C72.4465 15.016 71.9665 15.128 71.4865 15.352C71.0065 15.56 70.6065 15.88 70.2865 16.312C69.9665 16.728 69.8065 17.264 69.8065 17.92ZM88.0893 25L87.9693 22.744V18.832C87.9693 18.016 87.8813 17.336 87.7053 16.792C87.5453 16.232 87.2733 15.808 86.8893 15.52C86.5213 15.216 86.0253 15.064 85.4013 15.064C84.8253 15.064 84.3213 15.184 83.8893 15.424C83.4573 15.664 83.0893 16.04 82.7853 16.552L80.4333 15.688C80.6893 15.16 81.0253 14.672 81.4413 14.224C81.8733 13.76 82.4093 13.392 83.0493 13.12C83.7053 12.848 84.4893 12.712 85.4013 12.712C86.5693 12.712 87.5453 12.944 88.3293 13.408C89.1133 13.856 89.6893 14.504 90.0573 15.352C90.4413 16.2 90.6333 17.224 90.6333 18.424L90.5613 25H88.0893ZM84.6333 25.288C83.1933 25.288 82.0733 24.968 81.2733 24.328C80.4893 23.688 80.0973 22.784 80.0973 21.616C80.0973 20.368 80.5133 19.416 81.3453 18.76C82.1933 18.104 83.3693 17.776 84.8733 17.776H88.0893V19.84H85.7373C84.6653 19.84 83.9133 19.992 83.4813 20.296C83.0493 20.584 82.8333 21 82.8333 21.544C82.8333 22.008 83.0173 22.376 83.3853 22.648C83.7693 22.904 84.2973 23.032 84.9693 23.032C85.5773 23.032 86.1053 22.896 86.5533 22.624C87.0013 22.352 87.3453 21.992 87.5853 21.544C87.8413 21.096 87.9693 20.592 87.9693 20.032H88.7613C88.7613 21.664 88.4333 22.952 87.7773 23.896C87.1213 24.824 86.0733 25.288 84.6333 25.288ZM99.1632 25L105.739 8.2H108.715L101.923 25H99.1632ZM98.8752 25L92.0832 8.2H95.0352L101.611 25H98.8752ZM110.922 25V8.2H116.85C118.002 8.2 119.018 8.432 119.898 8.896C120.778 9.36 121.466 10.008 121.962 10.84C122.458 11.656 122.706 12.608 122.706 13.696C122.706 14.752 122.474 15.696 122.01 16.528C121.546 17.36 120.898 18.016 120.066 18.496C119.25 18.96 118.298 19.192 117.21 19.192H113.706V25H110.922ZM113.706 16.624H117.162C117.962 16.624 118.618 16.352 119.13 15.808C119.642 15.264 119.898 14.56 119.898 13.696C119.898 12.816 119.61 12.104 119.034 11.56C118.458 11.016 117.714 10.744 116.802 10.744H113.706V16.624ZM125.172 25V8.2H128.052L136.98 20.344V8.2H139.764V25H136.98L127.956 12.712V25H125.172Z" fill="white"/>
</svg>
