<svg width="52" height="52" viewBox="0 0 52 52" fill="none" xmlns="http://www.w3.org/2000/svg">
<path d="M24.375 26V9.75C24.375 9.31902 24.5462 8.9057 24.851 8.60095C25.1557 8.29621 25.569 8.125 26 8.125C26.431 8.125 26.8443 8.29621 27.149 8.60095C27.4538 8.9057 27.625 9.31902 27.625 9.75V26C27.625 26.431 27.4538 26.8443 27.149 27.149C26.8443 27.4538 26.431 27.625 26 27.625C25.569 27.625 25.1557 27.4538 24.851 27.149C24.5462 26.8443 24.375 26.431 24.375 26ZM36.6377 10.0141C36.2767 9.78596 35.8406 9.70905 35.4234 9.79998C35.0063 9.8909 34.6416 10.1423 34.4084 10.5C34.1752 10.8576 34.092 11.2926 34.177 11.711C34.2619 12.1294 34.5081 12.4976 34.8623 12.7359C39.5566 15.797 42.25 20.6314 42.25 26C42.25 30.3098 40.538 34.443 37.4905 37.4905C34.443 40.538 30.3098 42.25 26 42.25C21.6902 42.25 17.557 40.538 14.5095 37.4905C11.462 34.443 9.75 30.3098 9.75 26C9.75 20.6314 12.4434 15.797 17.1377 12.7359C17.4919 12.4976 17.7381 12.1294 17.823 11.711C17.908 11.2926 17.8248 10.8576 17.5916 10.5C17.3584 10.1423 16.9937 9.8909 16.5766 9.79998C16.1594 9.70905 15.7233 9.78596 15.3623 10.0141C9.72969 13.6866 6.5 19.5122 6.5 26C6.5 31.1717 8.55446 36.1316 12.2114 39.7886C15.8684 43.4455 20.8283 45.5 26 45.5C31.1717 45.5 36.1316 43.4455 39.7886 39.7886C43.4455 36.1316 45.5 31.1717 45.5 26C45.5 19.5122 42.2703 13.6866 36.6377 10.0141Z" fill="white"/>
</svg>
