<svg width="24" height="25" viewBox="0 0 24 25" fill="none" xmlns="http://www.w3.org/2000/svg">
<path d="M21 14.0006V20.0006C21 20.1995 20.921 20.3903 20.7803 20.5309C20.6397 20.6716 20.4489 20.7506 20.25 20.7506H3.75C3.55109 20.7506 3.36032 20.6716 3.21967 20.5309C3.07902 20.3903 3 20.1995 3 20.0006V14.0006C3 13.8017 3.07902 13.6109 3.21967 13.4703C3.36032 13.3296 3.55109 13.2506 3.75 13.2506C3.94891 13.2506 4.13968 13.3296 4.28033 13.4703C4.42098 13.6109 4.5 13.8017 4.5 14.0006V19.2506H19.5V14.0006C19.5 13.8017 19.579 13.6109 19.7197 13.4703C19.8603 13.3296 20.0511 13.2506 20.25 13.2506C20.4489 13.2506 20.6397 13.3296 20.7803 13.4703C20.921 13.6109 21 13.8017 21 14.0006ZM8.78063 7.78122L11.25 5.3109V14.0006C11.25 14.1995 11.329 14.3903 11.4697 14.5309C11.6103 14.6716 11.8011 14.7506 12 14.7506C12.1989 14.7506 12.3897 14.6716 12.5303 14.5309C12.671 14.3903 12.75 14.1995 12.75 14.0006V5.3109L15.2194 7.78122C15.3601 7.92195 15.551 8.00101 15.75 8.00101C15.949 8.00101 16.1399 7.92195 16.2806 7.78122C16.4214 7.64048 16.5004 7.44961 16.5004 7.25059C16.5004 7.05157 16.4214 6.8607 16.2806 6.71996L12.5306 2.96996C12.461 2.90023 12.3783 2.84491 12.2872 2.80717C12.1962 2.76943 12.0986 2.75 12 2.75C11.9014 2.75 11.8038 2.76943 11.7128 2.80717C11.6217 2.84491 11.539 2.90023 11.4694 2.96996L7.71937 6.71996C7.57864 6.8607 7.49958 7.05157 7.49958 7.25059C7.49958 7.44961 7.57864 7.64048 7.71937 7.78122C7.86011 7.92195 8.05098 8.00101 8.25 8.00101C8.44902 8.00101 8.63989 7.92195 8.78063 7.78122Z" fill="white"/>
</svg>
