<svg width="40" height="40" viewBox="0 0 40 40" fill="none" xmlns="http://www.w3.org/2000/svg">
<g clip-path="url(#clip0_406_22815)">
<path d="M20 40C31.0457 40 40 31.0457 40 20C40 8.9543 31.0457 0 20 0C8.9543 0 0 8.9543 0 20C0 31.0457 8.9543 40 20 40Z" fill="#F0F0F0"/>
<path d="M4.13484 7.82031C2.56383 9.8643 1.37922 12.2202 0.689453 14.7795H11.094L4.13484 7.82031Z" fill="#0052B4"/>
<path d="M39.3121 14.7794C38.6223 12.2202 37.4376 9.8643 35.8667 7.82031L28.9077 14.7794H39.3121Z" fill="#0052B4"/>
<path d="M0.689453 25.2168C1.3793 27.776 2.56391 30.1319 4.13485 32.1758L11.0938 25.2168H0.689453Z" fill="#0052B4"/>
<path d="M32.1764 4.13199C30.1324 2.56098 27.7766 1.37637 25.2173 0.686523V11.091L32.1764 4.13199Z" fill="#0052B4"/>
<path d="M7.82324 35.8622C9.86723 37.4332 12.2231 38.6178 14.7823 39.3077V28.9033L7.82324 35.8622Z" fill="#0052B4"/>
<path d="M14.7822 0.686523C12.223 1.37637 9.86715 2.56098 7.82324 4.13191L14.7822 11.0909V0.686523Z" fill="#0052B4"/>
<path d="M25.2173 39.3077C27.7765 38.6178 30.1324 37.4332 32.1763 35.8623L25.2173 28.9033V39.3077Z" fill="#0052B4"/>
<path d="M28.9077 25.2168L35.8667 32.1758C37.4376 30.1319 38.6223 27.776 39.3121 25.2168H28.9077Z" fill="#0052B4"/>
<path d="M39.8307 17.3913H22.6088H22.6087V0.169297C21.7548 0.058125 20.8841 0 20 0C19.1157 0 18.2452 0.058125 17.3913 0.169297V17.3912V17.3913H0.169297C0.058125 18.2452 0 19.1159 0 20C0 20.8843 0.058125 21.7548 0.169297 22.6087H17.3912H17.3913V39.8307C18.2452 39.9419 19.1157 40 20 40C20.8841 40 21.7548 39.942 22.6087 39.8307V22.6088V22.6087H39.8307C39.9419 21.7548 40 20.8843 40 20C40 19.1159 39.9419 18.2452 39.8307 17.3913Z" fill="#D80027"/>
<path d="M25.2173 25.2179L34.142 34.1425C34.5524 33.7322 34.944 33.3032 35.3176 32.8586L27.6768 25.2178H25.2173V25.2179Z" fill="#D80027"/>
<path d="M14.7827 25.2178H14.7825L5.85791 34.1424C6.26822 34.5529 6.69721 34.9444 7.14189 35.318L14.7827 27.6771V25.2178Z" fill="#D80027"/>
<path d="M14.782 14.7823V14.7822L5.85727 5.85742C5.4468 6.26773 5.05523 6.69672 4.68164 7.14141L12.3225 14.7823H14.782V14.7823Z" fill="#D80027"/>
<path d="M25.2173 14.783L34.1421 5.85816C33.7317 5.4477 33.3028 5.05613 32.8581 4.68262L25.2173 12.3235V14.783V14.783Z" fill="#D80027"/>
</g>
<defs>
<clipPath id="clip0_406_22815">
<rect width="40" height="40" fill="white"/>
</clipPath>
</defs>
</svg>
