<svg width="40" height="40" viewBox="0 0 40 40" fill="none" xmlns="http://www.w3.org/2000/svg">
<g clip-path="url(#clip0_406_22819)">
<path d="M20 40C31.0457 40 40 31.0457 40 20C40 8.9543 31.0457 0 20 0C8.9543 0 0 8.9543 0 20C0 31.0457 8.9543 40 20 40Z" fill="#F0F0F0"/>
<path d="M26.9564 20.0004C26.9564 21.7396 23.8419 26.0874 19.9999 26.0874C16.158 26.0874 13.0435 21.7396 13.0435 20.0004C13.0435 16.1584 16.158 13.0439 19.9999 13.0439C23.8419 13.0439 26.9564 16.1584 26.9564 20.0004Z" fill="#D80027"/>
<path d="M26.9564 20C26.9564 23.842 23.8419 26.9565 19.9999 26.9565C16.158 26.9565 13.0435 23.842 13.0435 20" fill="#0052B4"/>
<path d="M29.2225 24.3048L27.3779 26.1494L28.6077 27.3792L30.4523 25.5346L29.2225 24.3048Z" fill="black"/>
<path d="M26.1473 27.3771L24.3027 29.2217L25.5325 30.4514L27.3771 28.6068L26.1473 27.3771Z" fill="black"/>
<path d="M32.9115 27.9913L31.0669 29.8359L32.2966 31.0657L34.1412 29.2211L32.9115 27.9913Z" fill="black"/>
<path d="M29.8387 31.0685L27.9941 32.9131L29.2239 34.1428L31.0685 32.2982L29.8387 31.0685Z" fill="black"/>
<path d="M31.0673 26.1505L29.2227 27.9951L30.4524 29.2249L32.297 27.3803L31.0673 26.1505Z" fill="black"/>
<path d="M27.9935 29.2228L26.1489 31.0674L27.3787 32.2971L29.2233 30.4525L27.9935 29.2228Z" fill="black"/>
<path d="M26.1489 8.93068L31.0679 13.8496L32.2976 12.6199L27.3787 7.70094L26.1489 8.93068Z" fill="black"/>
<path d="M24.3043 10.7775L26.1489 12.6221L27.3786 11.3924L25.534 9.54778L24.3043 10.7775Z" fill="black"/>
<path d="M27.3791 13.8507L29.2236 15.6953L30.4533 14.4656L28.6087 12.621L27.3791 13.8507Z" fill="black"/>
<path d="M27.9918 7.08802L29.8364 8.93262L31.0662 7.70287L29.2216 5.85827L27.9918 7.08802Z" fill="black"/>
<path d="M31.068 10.1622L32.9126 12.0068L34.1423 10.7771L32.2978 8.9325L31.068 10.1622Z" fill="black"/>
<path d="M12.0054 32.914L7.08643 27.9951L5.85668 29.2249L10.7756 34.1438L12.0054 32.914Z" fill="black"/>
<path d="M13.8514 31.0663L12.0068 29.2217L10.7771 30.4514L12.6217 32.296L13.8514 31.0663Z" fill="black"/>
<path d="M10.7762 27.994L8.93164 26.1494L7.7019 27.3792L9.54649 29.2237L10.7762 27.994Z" fill="black"/>
<path d="M15.6963 29.2226L10.7773 24.3037L9.5476 25.5335L14.4665 30.4524L15.6963 29.2226Z" fill="black"/>
<path d="M7.08791 12.0068L12.0068 7.08789L10.7771 5.85814L5.85816 10.7771L7.08791 12.0068Z" fill="black"/>
<path d="M8.93116 13.8496L13.8501 8.93066L12.6203 7.70092L7.70141 12.6199L8.93116 13.8496Z" fill="black"/>
<path d="M10.7769 15.6953L15.6958 10.7764L14.4661 9.54667L9.54718 14.4656L10.7769 15.6953Z" fill="black"/>
</g>
<defs>
<clipPath id="clip0_406_22819">
<rect width="40" height="40" fill="white"/>
</clipPath>
</defs>
</svg>
