<svg width="52" height="52" viewBox="0 0 52 52" fill="none" xmlns="http://www.w3.org/2000/svg">
<g clip-path="url(#clip0_406_22820)">
<path d="M26 52C40.3594 52 52 40.3594 52 26C52 11.6406 40.3594 0 26 0C11.6406 0 0 11.6406 0 26C0 40.3594 11.6406 52 26 52Z" fill="#F0F0F0"/>
<path d="M24.8701 26.0014H52.0005C52.0005 23.6546 51.6877 21.3814 51.1048 19.2188H24.8701V26.0014Z" fill="#D80027"/>
<path d="M24.8701 12.434H48.1844C46.5928 9.83686 44.558 7.54124 42.1852 5.65137H24.8701V12.434Z" fill="#D80027"/>
<path d="M26.0001 52.0008C32.1192 52.0008 37.7434 49.8859 42.1848 46.3486H9.81543C14.2569 49.8859 19.8811 52.0008 26.0001 52.0008Z" fill="#D80027"/>
<path d="M3.81643 39.5639H48.1842C49.462 37.479 50.4528 35.1999 51.1046 32.7812H0.895996C1.54772 35.1999 2.53867 37.479 3.81643 39.5639Z" fill="#D80027"/>
<path d="M26 26C26 11.6407 26 9.94784 26 0C11.6407 0 0 11.6407 0 26H26Z" fill="#0052B4"/>
<path d="M17.2902 22.2534C13.7394 22.2534 10.8609 19.3748 10.8609 15.8241C10.8609 12.2733 13.7395 9.39476 17.2902 9.39476C18.3973 9.39476 19.439 9.67477 20.3485 10.1675C18.9218 8.77238 16.9706 7.91113 14.8173 7.91113C10.4472 7.91113 6.9043 11.4539 6.9043 15.8242C6.9043 20.1944 10.4472 23.7372 14.8173 23.7372C16.9706 23.7372 18.9218 22.876 20.3485 21.4808C19.439 21.9734 18.3974 22.2534 17.2902 22.2534Z" fill="#FFDA44"/>
<path d="M19.1025 11.3057L20.244 13.6926L22.8217 13.097L21.6674 15.4775L23.7405 17.1215L21.1594 17.7034L21.1666 20.3492L19.1025 18.6939L17.0384 20.3492L17.0455 17.7034L14.4644 17.1215L16.5374 15.4775L15.383 13.097L17.9609 13.6926L19.1025 11.3057Z" fill="#FFDA44"/>
</g>
<defs>
<clipPath id="clip0_406_22820">
<rect width="52" height="52" fill="white"/>
</clipPath>
</defs>
</svg>
