<svg width="40" height="40" viewBox="0 0 40 40" fill="none" xmlns="http://www.w3.org/2000/svg">
<g clip-path="url(#clip0_406_22818)">
<path d="M-0.000976562 20.0011C-0.000976562 28.6004 5.42652 35.9312 13.0424 38.7571L14.7816 20.0011L13.0424 1.24512C5.42652 4.07106 -0.000976562 11.4018 -0.000976562 20.0011Z" fill="#6DA544"/>
<path d="M40.0001 20C40.0001 8.95437 31.0457 0 20.0001 0C17.5537 0 15.2102 0.440078 13.0435 1.24398V38.756C15.2102 39.56 17.5537 40 20.0001 40C31.0457 40 40.0001 31.0456 40.0001 20Z" fill="#D80027"/>
<path d="M13.0439 26.9579C16.8858 26.9579 20.0004 23.8434 20.0004 20.0014C20.0004 16.1594 16.8858 13.0449 13.0439 13.0449C9.20193 13.0449 6.0874 16.1594 6.0874 20.0014C6.0874 23.8434 9.20193 26.9579 13.0439 26.9579Z" fill="#FFDA44"/>
<path d="M9.12939 16.5215V20.8693C9.12939 23.0304 10.8813 24.7824 13.0424 24.7824C15.2036 24.7824 16.9555 23.0305 16.9555 20.8693V16.5215H9.12939Z" fill="#D80027"/>
<path d="M13.0436 22.1724C12.3244 22.1724 11.7393 21.5872 11.7393 20.868V19.1289H14.3479V20.8681C14.3479 21.5872 13.7628 22.1724 13.0436 22.1724Z" fill="#F0F0F0"/>
</g>
<defs>
<clipPath id="clip0_406_22818">
<rect width="40" height="40" fill="white"/>
</clipPath>
</defs>
</svg>
