<svg width="52" height="52" viewBox="0 0 52 52" fill="none" xmlns="http://www.w3.org/2000/svg">
<g clip-path="url(#clip0_406_22823)">
<path d="M26 52C40.3594 52 52 40.3594 52 26C52 11.6406 40.3594 0 26 0C11.6406 0 0 11.6406 0 26C0 40.3594 11.6406 52 26 52Z" fill="#F0F0F0"/>
<path d="M50.3838 35.0419C51.429 32.2253 52.001 29.1788 52.001 25.9985C52.001 22.8182 51.429 19.7717 50.3838 16.9551H1.61816C0.573078 19.7717 0.000976562 22.8182 0.000976562 25.9985C0.000976562 29.1788 0.573078 32.2253 1.61816 35.0419L26.001 37.3028L50.3838 35.0419Z" fill="#0052B4"/>
<path d="M26.0005 51.9996C37.1796 51.9996 46.7097 44.9438 50.3833 35.043H1.61768C5.29129 44.9438 14.8214 51.9996 26.0005 51.9996Z" fill="#D80027"/>
</g>
<defs>
<clipPath id="clip0_406_22823">
<rect width="52" height="52" fill="white"/>
</clipPath>
</defs>
</svg>
