<svg width="64" height="64" viewBox="0 0 64 64" fill="none" xmlns="http://www.w3.org/2000/svg">
<g clip-path="url(#clip0_406_22814)">
<path d="M32 64C49.6731 64 64 49.6731 64 32C64 14.3269 49.6731 0 32 0C14.3269 0 0 14.3269 0 32C0 49.6731 14.3269 64 32 64Z" fill="#D80027"/>
<path d="M30.6901 26.1455L33.3157 29.7636L37.5678 28.3849L34.9381 31.9999L37.5633 35.6179L33.3127 34.2339L30.6831 37.8489L30.6858 33.3788L26.4351 31.9948L30.6873 30.616L30.6901 26.1455Z" fill="#F0F0F0"/>
<path d="M23.5251 41.0412C18.5306 41.0412 14.4816 36.9922 14.4816 31.9977C14.4816 27.0032 18.5306 22.9542 23.5251 22.9542C25.0824 22.9542 26.5476 23.3481 27.8269 24.0412C25.82 22.0784 23.0754 20.8672 20.0469 20.8672C13.8996 20.8672 8.9165 25.8504 8.9165 31.9976C8.9165 38.1447 13.8998 43.1279 20.0469 43.1279C23.0756 43.1279 25.8201 41.9166 27.8269 39.9539C26.5476 40.6473 25.0824 41.0412 23.5251 41.0412Z" fill="#F0F0F0"/>
</g>
<defs>
<clipPath id="clip0_406_22814">
<rect width="64" height="64" fill="white"/>
</clipPath>
</defs>
</svg>
