<svg width="52" height="52" viewBox="0 0 52 52" fill="none" xmlns="http://www.w3.org/2000/svg">
<g clip-path="url(#clip0_406_22822)">
<path d="M26 52C40.3594 52 52 40.3594 52 26C52 11.6406 40.3594 0 26 0C11.6406 0 0 11.6406 0 26C0 40.3594 11.6406 52 26 52Z" fill="#F0F0F0"/>
<path d="M24.8691 26.0014H51.9995C51.9995 23.6547 51.6867 21.3813 51.1038 19.2188H24.8691V26.0014Z" fill="#D80027"/>
<path d="M24.8691 12.434H48.1834C46.5918 9.83686 44.5568 7.54124 42.1841 5.65137H24.8691V12.434Z" fill="#D80027"/>
<path d="M25.999 52.0008C32.1181 52.0008 37.7423 49.8859 42.1836 46.3486H9.81445C14.2558 49.8859 19.88 52.0008 25.999 52.0008Z" fill="#D80027"/>
<path d="M3.81545 39.5639H48.1832C49.461 37.4789 50.4519 35.1999 51.1037 32.7812H0.89502C1.54675 35.1999 2.53769 37.4789 3.81545 39.5639Z" fill="#D80027"/>
<path d="M12.0437 4.06027H14.413L12.2091 5.6614L13.051 8.25216L10.8472 6.65102L8.64337 8.25216L9.37056 6.01402C7.43011 7.63039 5.72934 9.52413 4.32778 11.6342H5.08696L3.68408 12.6534C3.46552 13.018 3.25589 13.3884 3.055 13.7643L3.72491 15.8261L2.47508 14.918C2.1644 15.5762 1.88023 16.2493 1.6248 16.9364L2.36285 19.2081H5.08696L2.88305 20.8092L3.72491 23.4L1.5211 21.7989L0.200992 22.758C0.0688594 23.8202 0 24.902 0 26H26C26 11.6407 26 9.94784 26 0C20.8638 0 16.0758 1.48992 12.0437 4.06027ZM13.051 23.4L10.8472 21.7989L8.64337 23.4L9.48523 20.8092L7.28132 19.2081H10.0054L10.8472 16.6174L11.6889 19.2081H14.413L12.2091 20.8092L13.051 23.4ZM12.2091 13.2353L13.051 15.8261L10.8472 14.2249L8.64337 15.8261L9.48523 13.2353L7.28132 11.6342H10.0054L10.8472 9.04343L11.6889 11.6342H14.413L12.2091 13.2353ZM22.3771 23.4L20.1733 21.7989L17.9695 23.4L18.8113 20.8092L16.6074 19.2081H19.3315L20.1733 16.6174L21.015 19.2081H23.7391L21.5352 20.8092L22.3771 23.4ZM21.5352 13.2353L22.3771 15.8261L20.1733 14.2249L17.9695 15.8261L18.8113 13.2353L16.6074 11.6342H19.3315L20.1733 9.04343L21.015 11.6342H23.7391L21.5352 13.2353ZM21.5352 5.6614L22.3771 8.25216L20.1733 6.65102L17.9695 8.25216L18.8113 5.6614L16.6074 4.06027H19.3315L20.1733 1.46951L21.015 4.06027H23.7391L21.5352 5.6614Z" fill="#0052B4"/>
</g>
<defs>
<clipPath id="clip0_406_22822">
<rect width="52" height="52" fill="white"/>
</clipPath>
</defs>
</svg>
